<svg width="85" height="24" viewBox="0 0 85 24" fill="none" xmlns="http://www.w3.org/2000/svg">
<path d="M11.04 10.968H7.424V17.624C7.424 18.1787 7.56267 18.584 7.84 18.84C8.11733 19.096 8.52267 19.2453 9.056 19.288C9.58933 19.3093 10.2507 19.2987 11.04 19.256V23C8.20267 23.32 6.19733 23.0533 5.024 22.2C3.872 21.3467 3.296 19.8213 3.296 17.624V10.968H0.512V7H3.296V3.768L7.424 2.52V7H11.04V10.968ZM27.0825 21.016C25.4398 22.6373 23.4345 23.448 21.0665 23.448C18.6985 23.448 16.6932 22.6373 15.0505 21.016C13.4292 19.3733 12.6185 17.368 12.6185 15C12.6185 12.632 13.4292 10.6373 15.0505 9.016C16.6932 7.37333 18.6985 6.552 21.0665 6.552C23.4345 6.552 25.4398 7.37333 27.0825 9.016C28.7252 10.6373 29.5465 12.632 29.5465 15C29.5465 17.368 28.7252 19.3733 27.0825 21.016ZM17.9625 18.168C18.7945 19 19.8292 19.416 21.0665 19.416C22.3038 19.416 23.3385 19 24.1705 18.168C25.0025 17.336 25.4185 16.28 25.4185 15C25.4185 13.72 25.0025 12.664 24.1705 11.832C23.3385 11 22.3038 10.584 21.0665 10.584C19.8292 10.584 18.7945 11 17.9625 11.832C17.1518 12.664 16.7465 13.72 16.7465 15C16.7465 16.28 17.1518 17.336 17.9625 18.168ZM40.0665 23.448C37.6558 23.448 35.6398 22.6373 34.0185 21.016C32.4185 19.3947 31.6185 17.3893 31.6185 15C31.6185 12.6107 32.4185 10.6053 34.0185 8.984C35.6398 7.36267 37.6558 6.552 40.0665 6.552C41.6238 6.552 43.0425 6.92533 44.3225 7.672C45.6025 8.41867 46.5732 9.42133 47.2345 10.68L43.6825 12.76C43.3625 12.0987 42.8718 11.576 42.2105 11.192C41.5705 10.808 40.8452 10.616 40.0345 10.616C38.7972 10.616 37.7732 11.032 36.9625 11.864C36.1518 12.6747 35.7465 13.72 35.7465 15C35.7465 16.2587 36.1518 17.304 36.9625 18.136C37.7732 18.9467 38.7972 19.352 40.0345 19.352C40.8665 19.352 41.6025 19.1707 42.2425 18.808C42.9038 18.424 43.3945 17.9013 43.7145 17.24L47.2985 19.288C46.5945 20.5467 45.6025 21.56 44.3225 22.328C43.0425 23.0747 41.6238 23.448 40.0665 23.448ZM58.3778 6.552C60.1271 6.552 61.5671 7.13867 62.6978 8.312C63.8498 9.48533 64.4258 11.1067 64.4258 13.176V23H60.2978V13.688C60.2978 12.6213 60.0098 11.8107 59.4338 11.256C58.8578 10.68 58.0898 10.392 57.1298 10.392C56.0631 10.392 55.2098 10.7227 54.5698 11.384C53.9298 12.0453 53.6098 13.0373 53.6098 14.36V23H49.4818V0.599998H53.6098V8.792C54.6124 7.29867 56.2018 6.552 58.3778 6.552ZM80.1105 7H84.2385V23H80.1105V21.112C78.8732 22.6693 77.1345 23.448 74.8945 23.448C72.7612 23.448 70.9265 22.6373 69.3905 21.016C67.8758 19.3733 67.1185 17.368 67.1185 15C67.1185 12.632 67.8758 10.6373 69.3905 9.016C70.9265 7.37333 72.7612 6.552 74.8945 6.552C77.1345 6.552 78.8732 7.33067 80.1105 8.888V7ZM72.4945 18.264C73.3265 19.096 74.3825 19.512 75.6625 19.512C76.9425 19.512 77.9985 19.096 78.8305 18.264C79.6838 17.4107 80.1105 16.3227 80.1105 15C80.1105 13.6773 79.6838 12.6 78.8305 11.768C77.9985 10.9147 76.9425 10.488 75.6625 10.488C74.3825 10.488 73.3265 10.9147 72.4945 11.768C71.6625 12.6 71.2465 13.6773 71.2465 15C71.2465 16.3227 71.6625 17.4107 72.4945 18.264Z" fill="white"/>
</svg>
